<?xml version="1.0" encoding="utf-8"?>
<svg xmlns="http://www.w3.org/2000/svg" width="480" height="480" viewBox="0 0 40 40">
  <rect width="2" height="13.634" x="3" y="11.718" fill="#788b9c" />
  <rect width="2" height="13.634" x="35" y="11.718" fill="#788b9c" />
  <path fill="#f78f8f" d="M38.5,11.572l-2.982-5.101c-0.018-0.033-0.027-0.07-0.027-0.108V4.118c0-0.892-0.726-1.618-1.618-1.618H6.136c-0.892,0-1.618,0.726-1.618,1.618v2.245c0,0.038-0.009,0.076-0.027,0.108L1.5,11.572v2.301c0,1.856,1.616,3.442,3.37,3.61C4.985,17.495,5.099,17.5,5.211,17.5c1.912,0,3.467-1.555,3.467-3.467c0-0.128,0.103-0.231,0.231-0.231s0.231,0.103,0.231,0.231c0,1.912,1.555,3.467,3.467,3.467s3.467-1.555,3.467-3.467c0-0.128,0.103-0.231,0.231-0.231c0.128,0,0.231,0.103,0.231,0.231c0,1.912,1.555,3.467,3.467,3.467s3.467-1.555,3.467-3.467c0-0.128,0.103-0.231,0.231-0.231s0.231,0.103,0.231,0.231c0,1.912,1.555,3.467,3.467,3.467s3.467-1.555,3.467-3.467c0-0.128,0.103-0.231,0.231-0.231c0.128,0,0.231,0.103,0.231,0.231c0,1.912,1.555,3.467,3.467,3.467c0.112,0,0.226-0.005,0.341-0.016c1.753-0.168,3.361-1.753,3.361-3.61V11.572z" />
  <path fill="#f7a8a8" d="M37.959,11.515l-2.734-5.085H4.783l-2.734,5.085H37.959" />
  <rect width="2" height="7.304" x="30" y="31.696" fill="#788b9c" />
  <rect width="33" height="10" x="3.5" y="23.5" fill="#dbf2ff" />
  <path fill="#7496c4" d="M37,34H3V23h34V34z M4,33h32v-9H4V33z" />
  <path fill="#c8d1db" d="M9,38.5c-2.463,0-4.5-2.037-4.5-4.5s2.037-4.5,4.5-4.5s4.5,2.037,4.5,4.5S11.463,38.5,9,38.5z" />
  <path fill="#788b9c" d="M9,39c-2.757,0-5-2.243-5-5s2.243-5,5-5s5,2.243,5,5S11.757,39,9,39z M9,30c-2.168,0-4,1.832-4,4 s1.832,4,4,4s4-1.832,4-4S11.168,30,9,30z" />
  <path fill="#66798f" d="M10.421,34c0,0.785-0.637,1.421-1.421,1.421S7.579,34.785,7.579,34S8.215,32.579,9,32.579S10.421,33.215,10.421,34z" />
  <rect width="2" height="1.948" x="30" y="37.052" fill="#66798f" />
  <line x1="4.31" x2="35.575" y1="6.5" y2="6.5" fill="none" stroke="#c74343" />
  <line x1="38.333" x2="1.667" y1="11.5" y2="11.5" fill="none" stroke="#c74343" />
  <g>
    <path fill="#c74343" d="M34.798,18c-1.682,0-3.122-1.051-3.699-2.53C30.522,16.949,29.082,18,27.4,18 c-1.681,0-3.121-1.051-3.698-2.53C23.126,16.949,21.686,18,20.004,18c-1.681,0-3.121-1.051-3.698-2.53 C15.729,16.949,14.289,18,12.607,18s-3.122-1.052-3.698-2.531c-0.62,1.592-2.223,2.683-4.086,2.513C2.75,17.782,1,15.902,1,13.874 v-2.438l3.018-5.148v-2.17C4.018,2.95,4.968,2,6.136,2h27.737c1.168,0,2.118,0.95,2.118,2.118v2.173L39,11.437v2.438 c0,2.028-1.746,3.909-3.813,4.107C35.054,17.993,34.925,18,34.798,18z M31.1,13.302c0.402,0,0.73,0.328,0.73,0.731 c0,1.731,1.479,3.128,3.262,2.952C36.668,16.835,38,15.41,38,13.874v-2.166l-2.914-4.985c-0.064-0.117-0.095-0.237-0.095-0.36 V4.118C34.991,3.502,34.489,3,33.873,3H6.136C5.52,3,5.018,3.502,5.018,4.118v2.244c0,0.127-0.032,0.251-0.094,0.358L2,11.708 v2.166c0,1.535,1.336,2.96,2.918,3.111c1.751,0.175,3.26-1.22,3.26-2.952c0-0.403,0.328-0.731,0.731-0.731s0.731,0.328,0.731,0.731 c0,1.636,1.331,2.967,2.967,2.967c1.637,0,2.968-1.331,2.968-2.967c0-0.403,0.328-0.731,0.73-0.731 c0.403,0,0.731,0.328,0.731,0.731c0,1.636,1.331,2.967,2.967,2.967c1.637,0,2.968-1.331,2.968-2.967 c0-0.403,0.328-0.731,0.73-0.731c0.403,0,0.731,0.328,0.731,0.731c0,1.636,1.331,2.967,2.967,2.967 c1.637,0,2.968-1.331,2.968-2.967C30.368,13.63,30.696,13.302,31.1,13.302z" />
  </g>
</svg>